<svg width="20" height="20" viewBox="0 0 20 20" fill="none" xmlns="http://www.w3.org/2000/svg">
<path d="M18 2L2 2" stroke="white" stroke-width="1.5" stroke-linecap="round" stroke-linejoin="round"/>
<path d="M2 18L18 18" stroke="white" stroke-width="1.5" stroke-linecap="round" stroke-linejoin="round"/>
<path d="M2 6.26666L2 13.7333L8.4 13.7333L8.4 6.26666L2 6.26666Z" stroke="white" stroke-width="1.5" stroke-linecap="round" stroke-linejoin="round"/>
<path d="M11.6 6.26666L11.6 13.7333L18 13.7333V6.26666L11.6 6.26666Z" stroke="white" stroke-width="1.5" stroke-linecap="round" stroke-linejoin="round"/>
<path d="M3.60001 4.4C3.65275 4.4 3.70431 4.38436 3.74816 4.35506C3.79202 4.32576 3.82619 4.28411 3.84638 4.23538C3.86656 4.18666 3.87184 4.13304 3.86155 4.08131C3.85126 4.02958 3.82587 3.98207 3.78857 3.94477C3.75128 3.90748 3.70376 3.88208 3.65203 3.87179C3.60031 3.8615 3.54669 3.86678 3.49796 3.88697C3.44923 3.90715 3.40759 3.94133 3.37828 3.98518C3.34898 4.02904 3.33334 4.08059 3.33334 4.13334C3.33334 4.20406 3.36144 4.27189 3.41145 4.3219C3.46146 4.37191 3.52929 4.4 3.60001 4.4Z" stroke="white" stroke-width="1.5" stroke-linecap="round" stroke-linejoin="round"/>
<path d="M7.86667 4.4C7.91941 4.4 7.97097 4.38436 8.01482 4.35506C8.05868 4.32576 8.09286 4.28411 8.11304 4.23538C8.13322 4.18666 8.1385 4.13304 8.12822 4.08131C8.11793 4.02958 8.09253 3.98207 8.05523 3.94477C8.01794 3.90748 7.97043 3.88208 7.9187 3.87179C7.86697 3.8615 7.81335 3.86678 7.76462 3.88697C7.7159 3.90715 7.67425 3.94133 7.64495 3.98518C7.61565 4.02904 7.60001 4.08059 7.60001 4.13334C7.60001 4.20406 7.6281 4.27189 7.67811 4.3219C7.72812 4.37191 7.79595 4.4 7.86667 4.4Z" stroke="white" stroke-width="1.5" stroke-linecap="round" stroke-linejoin="round"/>
<path d="M12.1333 4.4C12.1861 4.4 12.2376 4.38436 12.2815 4.35506C12.3253 4.32576 12.3595 4.28411 12.3797 4.23538C12.3999 4.18666 12.4052 4.13304 12.3949 4.08131C12.3846 4.02958 12.3592 3.98207 12.3219 3.94477C12.2846 3.90748 12.2371 3.88208 12.1854 3.87179C12.1336 3.8615 12.08 3.86678 12.0313 3.88697C11.9826 3.90715 11.9409 3.94133 11.9116 3.98518C11.8823 4.02904 11.8667 4.08059 11.8667 4.13334C11.8667 4.20406 11.8948 4.27189 11.9448 4.3219C11.9948 4.37191 12.0626 4.4 12.1333 4.4Z" stroke="white" stroke-width="1.5" stroke-linecap="round" stroke-linejoin="round"/>
<path d="M16.4 4.4C16.4527 4.4 16.5043 4.38436 16.5482 4.35506C16.592 4.32576 16.6262 4.28411 16.6464 4.23538C16.6665 4.18666 16.6718 4.13304 16.6615 4.08131C16.6513 4.02958 16.6259 3.98207 16.5886 3.94477C16.5513 3.90748 16.5037 3.88208 16.452 3.87179C16.4003 3.8615 16.3467 3.86678 16.2979 3.88697C16.2492 3.90715 16.2076 3.94133 16.1783 3.98518C16.149 4.02904 16.1333 4.08059 16.1333 4.13334C16.1333 4.20406 16.1614 4.27189 16.2114 4.3219C16.2614 4.37191 16.3293 4.4 16.4 4.4Z" stroke="white" stroke-width="1.5" stroke-linecap="round" stroke-linejoin="round"/>
<path d="M3.60001 16.1333C3.65275 16.1333 3.70431 16.1177 3.74816 16.0884C3.79202 16.0591 3.82619 16.0174 3.84638 15.9687C3.86656 15.92 3.87184 15.8664 3.86155 15.8146C3.85126 15.7629 3.82587 15.7154 3.78857 15.6781C3.75128 15.6408 3.70376 15.6154 3.65203 15.6051C3.60031 15.5948 3.54669 15.6001 3.49796 15.6203C3.44923 15.6405 3.40759 15.6747 3.37828 15.7185C3.34898 15.7624 3.33334 15.8139 3.33334 15.8667C3.33334 15.9374 3.36144 16.0052 3.41145 16.0552C3.46146 16.1052 3.52929 16.1333 3.60001 16.1333Z" stroke="white" stroke-width="1.5" stroke-linecap="round" stroke-linejoin="round"/>
<path d="M7.86667 16.1333C7.91941 16.1333 7.97097 16.1177 8.01482 16.0884C8.05868 16.0591 8.09286 16.0174 8.11304 15.9687C8.13322 15.92 8.1385 15.8664 8.12822 15.8146C8.11793 15.7629 8.09253 15.7154 8.05523 15.6781C8.01794 15.6408 7.97043 15.6154 7.9187 15.6051C7.86697 15.5948 7.81335 15.6001 7.76462 15.6203C7.7159 15.6405 7.67425 15.6747 7.64495 15.7185C7.61565 15.7624 7.60001 15.8139 7.60001 15.8667C7.60001 15.9374 7.6281 16.0052 7.67811 16.0552C7.72812 16.1052 7.79595 16.1333 7.86667 16.1333Z" stroke="white" stroke-width="1.5" stroke-linecap="round" stroke-linejoin="round"/>
<path d="M12.1333 16.1333C12.1861 16.1333 12.2376 16.1177 12.2815 16.0884C12.3253 16.0591 12.3595 16.0174 12.3797 15.9687C12.3999 15.92 12.4052 15.8664 12.3949 15.8146C12.3846 15.7629 12.3592 15.7154 12.3219 15.6781C12.2846 15.6408 12.2371 15.6154 12.1854 15.6051C12.1336 15.5948 12.08 15.6001 12.0313 15.6203C11.9826 15.6405 11.9409 15.6747 11.9116 15.7185C11.8823 15.7624 11.8667 15.8139 11.8667 15.8667C11.8667 15.9374 11.8948 16.0052 11.9448 16.0552C11.9948 16.1052 12.0626 16.1333 12.1333 16.1333Z" stroke="white" stroke-width="1.5" stroke-linecap="round" stroke-linejoin="round"/>
<path d="M16.4 16.1333C16.4527 16.1333 16.5043 16.1177 16.5482 16.0884C16.592 16.0591 16.6262 16.0174 16.6464 15.9687C16.6665 15.92 16.6718 15.8664 16.6615 15.8146C16.6513 15.7629 16.6259 15.7154 16.5886 15.6781C16.5513 15.6408 16.5037 15.6154 16.452 15.6051C16.4003 15.5948 16.3467 15.6001 16.2979 15.6203C16.2492 15.6405 16.2076 15.6747 16.1783 15.7185C16.149 15.7624 16.1333 15.8139 16.1333 15.8667C16.1333 15.9374 16.1614 16.0052 16.2114 16.0552C16.2614 16.1052 16.3293 16.1333 16.4 16.1333Z" stroke="white" stroke-width="1.5" stroke-linecap="round" stroke-linejoin="round"/>
</svg>
