<svg width="20" height="20" viewBox="0 0 20 20" fill="none" xmlns="http://www.w3.org/2000/svg">
<path d="M3.60004 2.38461L3.60004 17.6154L14.7693 17.6154L14.7693 2.38461L3.60004 2.38461Z" stroke="white" stroke-width="1.5" stroke-linecap="round" stroke-linejoin="round"/>
<path d="M3.60004 12.5385L14.7693 12.5385" stroke="white" stroke-width="1.5" stroke-linecap="round" stroke-linejoin="round"/>
<path d="M9.69232 14.5692V15.5846" stroke="white" stroke-width="1.5" stroke-linecap="round" stroke-linejoin="round"/>
<path d="M11.7231 14.5692V15.5846" stroke="white" stroke-width="1.5" stroke-linecap="round" stroke-linejoin="round"/>
<path d="M6.90002 15.0769C6.90002 15.1271 6.91491 15.1762 6.94281 15.2179C6.9707 15.2597 7.01034 15.2922 7.05673 15.3114C7.10311 15.3306 7.15415 15.3357 7.20339 15.3259C7.25264 15.3161 7.29787 15.2919 7.33337 15.2564C7.36887 15.2209 7.39305 15.1757 7.40284 15.1264C7.41263 15.0772 7.40761 15.0261 7.38839 14.9798C7.36918 14.9334 7.33665 14.8937 7.2949 14.8658C7.25316 14.8379 7.20408 14.8231 7.15387 14.8231C7.08655 14.8231 7.02198 14.8498 6.97437 14.8974C6.92677 14.945 6.90002 15.0096 6.90002 15.0769" stroke="white" stroke-width="1.5" stroke-linecap="round" stroke-linejoin="round"/>
<path d="M16.8001 3.39999L14.7693 5.43076" stroke="white" stroke-width="1.5" stroke-linecap="round" stroke-linejoin="round"/>
<path d="M16.8001 16.6L14.7693 14.5692" stroke="white" stroke-width="1.5" stroke-linecap="round" stroke-linejoin="round"/>
</svg>
